<mxfile host="app.diagrams.net" modified="2021-12-18T08:03:54.927Z" agent="5.0 (Macintosh; Intel Mac OS X 10_15_7) AppleWebKit/537.36 (KHTML, like Gecko) Chrome/96.0.4664.93 Safari/537.36" etag="FqUtK9nM9rT6LUOdfdrA" version="15.9.4" type="github">
  <diagram id="yl93xI8oFi7PkdwwFOtm" name="第 1 页">
    <mxGraphModel dx="1358" dy="630" grid="1" gridSize="10" guides="1" tooltips="1" connect="1" arrows="1" fold="1" page="1" pageScale="1" pageWidth="827" pageHeight="1169" math="0" shadow="0">
      <root>
        <mxCell id="0" />
        <mxCell id="1" parent="0" />
        <mxCell id="k8xy3Kr_hPyLSZehIr84-10" value="" style="triangle;whiteSpace=wrap;html=1;shadow=0;rotation=-90;opacity=50;fillColor=#dae8fc;strokeColor=#6c8ebf;" vertex="1" parent="1">
          <mxGeometry x="177.5" y="160" width="85" height="100" as="geometry" />
        </mxCell>
        <mxCell id="k8xy3Kr_hPyLSZehIr84-11" value="" style="triangle;whiteSpace=wrap;html=1;shadow=0;rotation=-90;opacity=50;fillColor=#f8cecc;strokeColor=#b85450;" vertex="1" parent="1">
          <mxGeometry x="300.63" y="160" width="158.75" height="180" as="geometry" />
        </mxCell>
        <mxCell id="k8xy3Kr_hPyLSZehIr84-4" style="rounded=0;orthogonalLoop=1;jettySize=auto;html=1;exitX=0;exitY=1;exitDx=0;exitDy=0;entryX=0.5;entryY=0;entryDx=0;entryDy=0;endArrow=none;endFill=0;" edge="1" parent="1" source="k8xy3Kr_hPyLSZehIr84-1" target="k8xy3Kr_hPyLSZehIr84-2">
          <mxGeometry relative="1" as="geometry" />
        </mxCell>
        <mxCell id="k8xy3Kr_hPyLSZehIr84-5" style="edgeStyle=none;rounded=0;orthogonalLoop=1;jettySize=auto;html=1;exitX=1;exitY=1;exitDx=0;exitDy=0;entryX=0.5;entryY=0;entryDx=0;entryDy=0;endArrow=none;endFill=0;" edge="1" parent="1" source="k8xy3Kr_hPyLSZehIr84-1" target="k8xy3Kr_hPyLSZehIr84-3">
          <mxGeometry relative="1" as="geometry" />
        </mxCell>
        <mxCell id="k8xy3Kr_hPyLSZehIr84-1" value="&lt;font face=&quot;Comic Sans MS&quot;&gt;5&lt;/font&gt;" style="ellipse;whiteSpace=wrap;html=1;aspect=fixed;fillColor=#f5f5f5;fontColor=#333333;strokeColor=#666666;shadow=1;" vertex="1" parent="1">
          <mxGeometry x="280" y="120" width="40" height="40" as="geometry" />
        </mxCell>
        <mxCell id="k8xy3Kr_hPyLSZehIr84-2" value="&lt;font face=&quot;Comic Sans MS&quot;&gt;2&lt;/font&gt;" style="ellipse;whiteSpace=wrap;html=1;aspect=fixed;fillColor=#f5f5f5;fontColor=#333333;strokeColor=#666666;shadow=1;" vertex="1" parent="1">
          <mxGeometry x="200" y="200" width="40" height="40" as="geometry" />
        </mxCell>
        <mxCell id="k8xy3Kr_hPyLSZehIr84-7" style="edgeStyle=none;rounded=0;orthogonalLoop=1;jettySize=auto;html=1;exitX=0;exitY=1;exitDx=0;exitDy=0;entryX=0.5;entryY=0;entryDx=0;entryDy=0;endArrow=none;endFill=0;" edge="1" parent="1" source="k8xy3Kr_hPyLSZehIr84-3" target="k8xy3Kr_hPyLSZehIr84-6">
          <mxGeometry relative="1" as="geometry" />
        </mxCell>
        <mxCell id="k8xy3Kr_hPyLSZehIr84-9" style="edgeStyle=none;rounded=0;orthogonalLoop=1;jettySize=auto;html=1;exitX=1;exitY=1;exitDx=0;exitDy=0;entryX=0.5;entryY=0;entryDx=0;entryDy=0;endArrow=none;endFill=0;" edge="1" parent="1" source="k8xy3Kr_hPyLSZehIr84-3" target="k8xy3Kr_hPyLSZehIr84-8">
          <mxGeometry relative="1" as="geometry" />
        </mxCell>
        <mxCell id="k8xy3Kr_hPyLSZehIr84-3" value="&lt;font face=&quot;Comic Sans MS&quot;&gt;8&lt;/font&gt;" style="ellipse;whiteSpace=wrap;html=1;aspect=fixed;fillColor=#f5f5f5;fontColor=#333333;strokeColor=#666666;shadow=1;" vertex="1" parent="1">
          <mxGeometry x="360" y="200" width="40" height="40" as="geometry" />
        </mxCell>
        <mxCell id="k8xy3Kr_hPyLSZehIr84-6" value="&lt;font face=&quot;Comic Sans MS&quot;&gt;6&lt;/font&gt;" style="ellipse;whiteSpace=wrap;html=1;aspect=fixed;fillColor=#f5f5f5;fontColor=#333333;strokeColor=#666666;shadow=1;" vertex="1" parent="1">
          <mxGeometry x="320" y="280" width="40" height="40" as="geometry" />
        </mxCell>
        <mxCell id="k8xy3Kr_hPyLSZehIr84-8" value="&lt;font face=&quot;Comic Sans MS&quot;&gt;9&lt;/font&gt;" style="ellipse;whiteSpace=wrap;html=1;aspect=fixed;fillColor=#f5f5f5;fontColor=#333333;strokeColor=#666666;shadow=1;" vertex="1" parent="1">
          <mxGeometry x="400" y="280" width="40" height="40" as="geometry" />
        </mxCell>
        <mxCell id="k8xy3Kr_hPyLSZehIr84-12" value="&lt;div&gt;&lt;span style=&quot;font-size: 13px ; font-family: &amp;#34;comic sans ms&amp;#34;&quot;&gt;二叉搜索树示例:&lt;/span&gt;&lt;/div&gt;&lt;font style=&quot;font-size: 13px&quot; face=&quot;Comic Sans MS&quot;&gt;&lt;div&gt;&lt;span&gt;左子树中所有节点的值小于根节点&lt;/span&gt;&lt;/div&gt;&lt;div&gt;&lt;span&gt;右子树中所有节点的值大于根节点&lt;/span&gt;&lt;/div&gt;&lt;div&gt;&lt;span&gt;左子树和右子树也为二叉搜索树&lt;/span&gt;&lt;/div&gt;&lt;/font&gt;" style="text;html=1;strokeColor=none;fillColor=none;align=center;verticalAlign=middle;whiteSpace=wrap;rounded=0;shadow=0;opacity=50;" vertex="1" parent="1">
          <mxGeometry x="160" y="40" width="280" height="80" as="geometry" />
        </mxCell>
        <mxCell id="k8xy3Kr_hPyLSZehIr84-13" value="&lt;font face=&quot;Comic Sans MS&quot;&gt;左子树&lt;/font&gt;" style="text;html=1;strokeColor=none;fillColor=none;align=center;verticalAlign=middle;whiteSpace=wrap;rounded=0;shadow=0;opacity=50;" vertex="1" parent="1">
          <mxGeometry x="160" y="160" width="40" height="40" as="geometry" />
        </mxCell>
        <mxCell id="k8xy3Kr_hPyLSZehIr84-14" value="&lt;font face=&quot;Comic Sans MS&quot;&gt;右子树&lt;/font&gt;" style="text;html=1;strokeColor=none;fillColor=none;align=center;verticalAlign=middle;whiteSpace=wrap;rounded=0;shadow=0;opacity=50;" vertex="1" parent="1">
          <mxGeometry x="400" y="160" width="40" height="40" as="geometry" />
        </mxCell>
        <mxCell id="k8xy3Kr_hPyLSZehIr84-15" value="" style="triangle;whiteSpace=wrap;html=1;shadow=0;rotation=-90;opacity=50;fillColor=#dae8fc;strokeColor=#6c8ebf;" vertex="1" parent="1">
          <mxGeometry x="177.5" y="480" width="85" height="100" as="geometry" />
        </mxCell>
        <mxCell id="k8xy3Kr_hPyLSZehIr84-16" value="" style="triangle;whiteSpace=wrap;html=1;shadow=0;rotation=-90;opacity=50;fillColor=#f8cecc;strokeColor=#b85450;" vertex="1" parent="1">
          <mxGeometry x="300.63" y="480" width="158.75" height="180" as="geometry" />
        </mxCell>
        <mxCell id="k8xy3Kr_hPyLSZehIr84-17" style="rounded=0;orthogonalLoop=1;jettySize=auto;html=1;exitX=0;exitY=1;exitDx=0;exitDy=0;entryX=0.5;entryY=0;entryDx=0;entryDy=0;endArrow=none;endFill=0;" edge="1" parent="1" source="k8xy3Kr_hPyLSZehIr84-19" target="k8xy3Kr_hPyLSZehIr84-20">
          <mxGeometry relative="1" as="geometry" />
        </mxCell>
        <mxCell id="k8xy3Kr_hPyLSZehIr84-18" style="edgeStyle=none;rounded=0;orthogonalLoop=1;jettySize=auto;html=1;exitX=1;exitY=1;exitDx=0;exitDy=0;entryX=0.5;entryY=0;entryDx=0;entryDy=0;endArrow=none;endFill=0;" edge="1" parent="1" source="k8xy3Kr_hPyLSZehIr84-19" target="k8xy3Kr_hPyLSZehIr84-23">
          <mxGeometry relative="1" as="geometry" />
        </mxCell>
        <mxCell id="k8xy3Kr_hPyLSZehIr84-19" value="&lt;font face=&quot;Comic Sans MS&quot;&gt;5&lt;/font&gt;" style="ellipse;whiteSpace=wrap;html=1;aspect=fixed;fillColor=#f5f5f5;fontColor=#333333;strokeColor=#666666;shadow=1;" vertex="1" parent="1">
          <mxGeometry x="280" y="440" width="40" height="40" as="geometry" />
        </mxCell>
        <mxCell id="k8xy3Kr_hPyLSZehIr84-20" value="&lt;font face=&quot;Comic Sans MS&quot;&gt;2&lt;/font&gt;" style="ellipse;whiteSpace=wrap;html=1;aspect=fixed;fillColor=#f5f5f5;fontColor=#333333;strokeColor=#666666;shadow=1;" vertex="1" parent="1">
          <mxGeometry x="200" y="520" width="40" height="40" as="geometry" />
        </mxCell>
        <mxCell id="k8xy3Kr_hPyLSZehIr84-21" style="edgeStyle=none;rounded=0;orthogonalLoop=1;jettySize=auto;html=1;exitX=0;exitY=1;exitDx=0;exitDy=0;entryX=0.5;entryY=0;entryDx=0;entryDy=0;endArrow=none;endFill=0;" edge="1" parent="1" source="k8xy3Kr_hPyLSZehIr84-23" target="k8xy3Kr_hPyLSZehIr84-24">
          <mxGeometry relative="1" as="geometry" />
        </mxCell>
        <mxCell id="k8xy3Kr_hPyLSZehIr84-22" style="edgeStyle=none;rounded=0;orthogonalLoop=1;jettySize=auto;html=1;exitX=1;exitY=1;exitDx=0;exitDy=0;entryX=0.5;entryY=0;entryDx=0;entryDy=0;endArrow=none;endFill=0;" edge="1" parent="1" source="k8xy3Kr_hPyLSZehIr84-23" target="k8xy3Kr_hPyLSZehIr84-25">
          <mxGeometry relative="1" as="geometry" />
        </mxCell>
        <mxCell id="k8xy3Kr_hPyLSZehIr84-23" value="&lt;font face=&quot;Comic Sans MS&quot;&gt;8&lt;/font&gt;" style="ellipse;whiteSpace=wrap;html=1;aspect=fixed;fillColor=#f5f5f5;fontColor=#333333;strokeColor=#666666;shadow=1;" vertex="1" parent="1">
          <mxGeometry x="360" y="520" width="40" height="40" as="geometry" />
        </mxCell>
        <mxCell id="k8xy3Kr_hPyLSZehIr84-24" value="&lt;font face=&quot;Comic Sans MS&quot;&gt;6&lt;/font&gt;" style="ellipse;whiteSpace=wrap;html=1;aspect=fixed;fillColor=#f5f5f5;fontColor=#333333;strokeColor=#666666;shadow=1;" vertex="1" parent="1">
          <mxGeometry x="320" y="600" width="40" height="40" as="geometry" />
        </mxCell>
        <mxCell id="k8xy3Kr_hPyLSZehIr84-25" value="&lt;font face=&quot;Comic Sans MS&quot;&gt;9&lt;/font&gt;" style="ellipse;whiteSpace=wrap;html=1;aspect=fixed;fillColor=#f5f5f5;fontColor=#333333;strokeColor=#666666;shadow=1;" vertex="1" parent="1">
          <mxGeometry x="400" y="600" width="40" height="40" as="geometry" />
        </mxCell>
        <mxCell id="k8xy3Kr_hPyLSZehIr84-26" value="&lt;font face=&quot;Comic Sans MS&quot;&gt;左子树&lt;/font&gt;" style="text;html=1;strokeColor=none;fillColor=none;align=center;verticalAlign=middle;whiteSpace=wrap;rounded=0;shadow=0;opacity=50;" vertex="1" parent="1">
          <mxGeometry x="160" y="480" width="40" height="40" as="geometry" />
        </mxCell>
        <mxCell id="k8xy3Kr_hPyLSZehIr84-27" value="&lt;font face=&quot;Comic Sans MS&quot;&gt;右子树&lt;/font&gt;" style="text;html=1;strokeColor=none;fillColor=none;align=center;verticalAlign=middle;whiteSpace=wrap;rounded=0;shadow=0;opacity=50;" vertex="1" parent="1">
          <mxGeometry x="400" y="480" width="40" height="40" as="geometry" />
        </mxCell>
        <mxCell id="k8xy3Kr_hPyLSZehIr84-28" value="" style="endArrow=none;dashed=1;html=1;rounded=0;fontFamily=Comic Sans MS;fontSize=13;fillColor=#dae8fc;strokeColor=#6c8ebf;" edge="1" parent="1">
          <mxGeometry width="50" height="50" relative="1" as="geometry">
            <mxPoint x="270" y="620" as="sourcePoint" />
            <mxPoint x="270" y="440" as="targetPoint" />
          </mxGeometry>
        </mxCell>
        <mxCell id="k8xy3Kr_hPyLSZehIr84-29" value="" style="triangle;whiteSpace=wrap;html=1;shadow=0;rotation=-90;opacity=50;fillColor=#dae8fc;strokeColor=#6c8ebf;" vertex="1" parent="1">
          <mxGeometry x="577.5" y="480" width="85" height="100" as="geometry" />
        </mxCell>
        <mxCell id="k8xy3Kr_hPyLSZehIr84-30" value="" style="triangle;whiteSpace=wrap;html=1;shadow=0;rotation=-90;opacity=50;fillColor=#f8cecc;strokeColor=#b85450;" vertex="1" parent="1">
          <mxGeometry x="740" y="480" width="158.75" height="180" as="geometry" />
        </mxCell>
        <mxCell id="k8xy3Kr_hPyLSZehIr84-31" style="rounded=0;orthogonalLoop=1;jettySize=auto;html=1;exitX=0;exitY=1;exitDx=0;exitDy=0;entryX=0.5;entryY=0;entryDx=0;entryDy=0;endArrow=none;endFill=0;" edge="1" parent="1" source="k8xy3Kr_hPyLSZehIr84-33" target="k8xy3Kr_hPyLSZehIr84-34">
          <mxGeometry relative="1" as="geometry" />
        </mxCell>
        <mxCell id="k8xy3Kr_hPyLSZehIr84-32" style="edgeStyle=none;rounded=0;orthogonalLoop=1;jettySize=auto;html=1;exitX=1;exitY=1;exitDx=0;exitDy=0;entryX=0.5;entryY=0;entryDx=0;entryDy=0;endArrow=none;endFill=0;" edge="1" parent="1" source="k8xy3Kr_hPyLSZehIr84-33" target="k8xy3Kr_hPyLSZehIr84-37">
          <mxGeometry relative="1" as="geometry">
            <mxPoint x="753.5121356237306" y="474.1421356237306" as="sourcePoint" />
          </mxGeometry>
        </mxCell>
        <mxCell id="k8xy3Kr_hPyLSZehIr84-33" value="&lt;font face=&quot;Comic Sans MS&quot;&gt;5&lt;/font&gt;" style="ellipse;whiteSpace=wrap;html=1;aspect=fixed;fillColor=#f5f5f5;fontColor=#333333;strokeColor=#666666;shadow=1;" vertex="1" parent="1">
          <mxGeometry x="680" y="440" width="40" height="40" as="geometry" />
        </mxCell>
        <mxCell id="k8xy3Kr_hPyLSZehIr84-34" value="&lt;font face=&quot;Comic Sans MS&quot;&gt;2&lt;/font&gt;" style="ellipse;whiteSpace=wrap;html=1;aspect=fixed;fillColor=#f5f5f5;fontColor=#333333;strokeColor=#666666;shadow=1;" vertex="1" parent="1">
          <mxGeometry x="600" y="520" width="40" height="40" as="geometry" />
        </mxCell>
        <mxCell id="k8xy3Kr_hPyLSZehIr84-35" style="edgeStyle=none;rounded=0;orthogonalLoop=1;jettySize=auto;html=1;exitX=0;exitY=1;exitDx=0;exitDy=0;entryX=0.5;entryY=0;entryDx=0;entryDy=0;endArrow=none;endFill=0;" edge="1" parent="1" source="k8xy3Kr_hPyLSZehIr84-37" target="k8xy3Kr_hPyLSZehIr84-38">
          <mxGeometry relative="1" as="geometry" />
        </mxCell>
        <mxCell id="k8xy3Kr_hPyLSZehIr84-36" style="edgeStyle=none;rounded=0;orthogonalLoop=1;jettySize=auto;html=1;exitX=1;exitY=1;exitDx=0;exitDy=0;entryX=0.5;entryY=0;entryDx=0;entryDy=0;endArrow=none;endFill=0;" edge="1" parent="1" source="k8xy3Kr_hPyLSZehIr84-37" target="k8xy3Kr_hPyLSZehIr84-39">
          <mxGeometry relative="1" as="geometry" />
        </mxCell>
        <mxCell id="k8xy3Kr_hPyLSZehIr84-37" value="&lt;font face=&quot;Comic Sans MS&quot;&gt;8&lt;/font&gt;" style="ellipse;whiteSpace=wrap;html=1;aspect=fixed;fillColor=#f5f5f5;fontColor=#333333;strokeColor=#666666;shadow=1;" vertex="1" parent="1">
          <mxGeometry x="799.37" y="520" width="40" height="40" as="geometry" />
        </mxCell>
        <mxCell id="k8xy3Kr_hPyLSZehIr84-38" value="&lt;font face=&quot;Comic Sans MS&quot;&gt;6&lt;/font&gt;" style="ellipse;whiteSpace=wrap;html=1;aspect=fixed;fillColor=#f5f5f5;fontColor=#333333;strokeColor=#666666;shadow=1;" vertex="1" parent="1">
          <mxGeometry x="759.37" y="600" width="40" height="40" as="geometry" />
        </mxCell>
        <mxCell id="k8xy3Kr_hPyLSZehIr84-39" value="&lt;font face=&quot;Comic Sans MS&quot;&gt;9&lt;/font&gt;" style="ellipse;whiteSpace=wrap;html=1;aspect=fixed;fillColor=#f5f5f5;fontColor=#333333;strokeColor=#666666;shadow=1;" vertex="1" parent="1">
          <mxGeometry x="839.37" y="600" width="40" height="40" as="geometry" />
        </mxCell>
        <mxCell id="k8xy3Kr_hPyLSZehIr84-40" value="&lt;font face=&quot;Comic Sans MS&quot;&gt;左子树&lt;/font&gt;" style="text;html=1;strokeColor=none;fillColor=none;align=center;verticalAlign=middle;whiteSpace=wrap;rounded=0;shadow=0;opacity=50;" vertex="1" parent="1">
          <mxGeometry x="560" y="480" width="40" height="40" as="geometry" />
        </mxCell>
        <mxCell id="k8xy3Kr_hPyLSZehIr84-41" value="&lt;font face=&quot;Comic Sans MS&quot;&gt;右子树&lt;/font&gt;" style="text;html=1;strokeColor=none;fillColor=none;align=center;verticalAlign=middle;whiteSpace=wrap;rounded=0;shadow=0;opacity=50;" vertex="1" parent="1">
          <mxGeometry x="839.37" y="480" width="40" height="40" as="geometry" />
        </mxCell>
        <mxCell id="k8xy3Kr_hPyLSZehIr84-42" value="" style="endArrow=none;dashed=1;html=1;rounded=0;fontFamily=Comic Sans MS;fontSize=13;fillColor=#f8cecc;strokeColor=#b85450;" edge="1" parent="1">
          <mxGeometry width="50" height="50" relative="1" as="geometry">
            <mxPoint x="730" y="620" as="sourcePoint" />
            <mxPoint x="730" y="440" as="targetPoint" />
          </mxGeometry>
        </mxCell>
        <mxCell id="k8xy3Kr_hPyLSZehIr84-43" value="" style="shape=crossbar;whiteSpace=wrap;html=1;rounded=1;shadow=0;fontFamily=Comic Sans MS;fontSize=13;opacity=50;" vertex="1" parent="1">
          <mxGeometry x="170" y="650" width="100" height="20" as="geometry" />
        </mxCell>
        <mxCell id="k8xy3Kr_hPyLSZehIr84-45" value="-∞" style="text;html=1;strokeColor=none;fillColor=none;align=center;verticalAlign=middle;whiteSpace=wrap;rounded=0;shadow=0;fontFamily=Comic Sans MS;fontSize=13;opacity=50;" vertex="1" parent="1">
          <mxGeometry x="140" y="670" width="60" height="30" as="geometry" />
        </mxCell>
        <mxCell id="k8xy3Kr_hPyLSZehIr84-46" value="5" style="text;html=1;strokeColor=none;fillColor=none;align=center;verticalAlign=middle;whiteSpace=wrap;rounded=0;shadow=0;fontFamily=Comic Sans MS;fontSize=13;opacity=50;" vertex="1" parent="1">
          <mxGeometry x="240.63" y="670" width="60" height="30" as="geometry" />
        </mxCell>
        <mxCell id="k8xy3Kr_hPyLSZehIr84-47" value="" style="shape=crossbar;whiteSpace=wrap;html=1;rounded=1;shadow=0;fontFamily=Comic Sans MS;fontSize=13;opacity=50;" vertex="1" parent="1">
          <mxGeometry x="729.05" y="655" width="180.63" height="20" as="geometry" />
        </mxCell>
        <mxCell id="k8xy3Kr_hPyLSZehIr84-48" value="5" style="text;html=1;strokeColor=none;fillColor=none;align=center;verticalAlign=middle;whiteSpace=wrap;rounded=0;shadow=0;fontFamily=Comic Sans MS;fontSize=13;opacity=50;" vertex="1" parent="1">
          <mxGeometry x="699.37" y="670" width="60" height="30" as="geometry" />
        </mxCell>
        <mxCell id="k8xy3Kr_hPyLSZehIr84-49" value="&lt;font style=&quot;font-size: 15px&quot;&gt;-∞&lt;/font&gt;" style="text;html=1;strokeColor=none;fillColor=none;align=center;verticalAlign=middle;whiteSpace=wrap;rounded=0;shadow=0;fontFamily=Comic Sans MS;fontSize=13;opacity=50;" vertex="1" parent="1">
          <mxGeometry x="879.37" y="670" width="60" height="30" as="geometry" />
        </mxCell>
        <mxCell id="k8xy3Kr_hPyLSZehIr84-51" value="左子树中所有节点取值范围为(-∞, 5)" style="text;html=1;strokeColor=none;fillColor=none;align=center;verticalAlign=middle;whiteSpace=wrap;rounded=0;shadow=0;fontFamily=Comic Sans MS;fontSize=15;opacity=50;" vertex="1" parent="1">
          <mxGeometry x="160" y="400" width="280" height="40" as="geometry" />
        </mxCell>
        <mxCell id="k8xy3Kr_hPyLSZehIr84-52" value="右子树中所有节点取值范围为(5,+∞)" style="text;html=1;strokeColor=none;fillColor=none;align=center;verticalAlign=middle;whiteSpace=wrap;rounded=0;shadow=0;fontFamily=Comic Sans MS;fontSize=15;opacity=50;" vertex="1" parent="1">
          <mxGeometry x="559.37" y="400" width="280.63" height="40" as="geometry" />
        </mxCell>
        <mxCell id="k8xy3Kr_hPyLSZehIr84-53" value="" style="rounded=0;whiteSpace=wrap;html=1;opacity=20;" vertex="1" parent="1">
          <mxGeometry x="360" y="880" width="140" height="140" as="geometry" />
        </mxCell>
        <mxCell id="k8xy3Kr_hPyLSZehIr84-54" value="" style="rounded=0;whiteSpace=wrap;html=1;opacity=20;" vertex="1" parent="1">
          <mxGeometry x="320" y="800" width="60" height="60" as="geometry" />
        </mxCell>
        <mxCell id="k8xy3Kr_hPyLSZehIr84-55" value="" style="rounded=0;whiteSpace=wrap;html=1;opacity=20;" vertex="1" parent="1">
          <mxGeometry x="200" y="880" width="140" height="140" as="geometry" />
        </mxCell>
        <mxCell id="k8xy3Kr_hPyLSZehIr84-56" style="rounded=0;orthogonalLoop=1;jettySize=auto;html=1;exitX=0;exitY=1;exitDx=0;exitDy=0;entryX=1;entryY=0;entryDx=0;entryDy=0;" edge="1" parent="1" source="k8xy3Kr_hPyLSZehIr84-58" target="k8xy3Kr_hPyLSZehIr84-61">
          <mxGeometry relative="1" as="geometry" />
        </mxCell>
        <mxCell id="k8xy3Kr_hPyLSZehIr84-57" style="edgeStyle=none;rounded=0;orthogonalLoop=1;jettySize=auto;html=1;exitX=1;exitY=1;exitDx=0;exitDy=0;" edge="1" parent="1" source="k8xy3Kr_hPyLSZehIr84-58" target="k8xy3Kr_hPyLSZehIr84-64">
          <mxGeometry relative="1" as="geometry" />
        </mxCell>
        <mxCell id="k8xy3Kr_hPyLSZehIr84-58" value="&lt;font face=&quot;Comic Sans MS&quot; style=&quot;font-size: 15px&quot;&gt;b&lt;/font&gt;" style="ellipse;whiteSpace=wrap;html=1;aspect=fixed;fillColor=#f5f5f5;fontColor=#333333;strokeColor=#666666;" vertex="1" parent="1">
          <mxGeometry x="330" y="810" width="40" height="40" as="geometry" />
        </mxCell>
        <mxCell id="k8xy3Kr_hPyLSZehIr84-59" style="edgeStyle=none;rounded=0;orthogonalLoop=1;jettySize=auto;html=1;exitX=0;exitY=1;exitDx=0;exitDy=0;entryX=0.5;entryY=0;entryDx=0;entryDy=0;" edge="1" parent="1" source="k8xy3Kr_hPyLSZehIr84-61" target="k8xy3Kr_hPyLSZehIr84-65">
          <mxGeometry relative="1" as="geometry" />
        </mxCell>
        <mxCell id="k8xy3Kr_hPyLSZehIr84-60" style="edgeStyle=none;rounded=0;orthogonalLoop=1;jettySize=auto;html=1;exitX=1;exitY=1;exitDx=0;exitDy=0;entryX=0.5;entryY=0;entryDx=0;entryDy=0;" edge="1" parent="1" source="k8xy3Kr_hPyLSZehIr84-61" target="k8xy3Kr_hPyLSZehIr84-66">
          <mxGeometry relative="1" as="geometry" />
        </mxCell>
        <mxCell id="k8xy3Kr_hPyLSZehIr84-61" value="&lt;font style=&quot;font-size: 15px&quot; face=&quot;Comic Sans MS&quot;&gt;a&lt;/font&gt;" style="ellipse;whiteSpace=wrap;html=1;aspect=fixed;fillColor=#f5f5f5;fontColor=#333333;strokeColor=#666666;" vertex="1" parent="1">
          <mxGeometry x="250" y="890" width="40" height="40" as="geometry" />
        </mxCell>
        <mxCell id="k8xy3Kr_hPyLSZehIr84-62" style="edgeStyle=none;rounded=0;orthogonalLoop=1;jettySize=auto;html=1;exitX=0;exitY=1;exitDx=0;exitDy=0;entryX=0.5;entryY=0;entryDx=0;entryDy=0;" edge="1" parent="1" source="k8xy3Kr_hPyLSZehIr84-64" target="k8xy3Kr_hPyLSZehIr84-67">
          <mxGeometry relative="1" as="geometry" />
        </mxCell>
        <mxCell id="k8xy3Kr_hPyLSZehIr84-63" style="edgeStyle=none;rounded=0;orthogonalLoop=1;jettySize=auto;html=1;exitX=1;exitY=1;exitDx=0;exitDy=0;entryX=0.5;entryY=0;entryDx=0;entryDy=0;" edge="1" parent="1" source="k8xy3Kr_hPyLSZehIr84-64" target="k8xy3Kr_hPyLSZehIr84-68">
          <mxGeometry relative="1" as="geometry" />
        </mxCell>
        <mxCell id="k8xy3Kr_hPyLSZehIr84-64" value="&lt;font style=&quot;font-size: 15px&quot; face=&quot;Comic Sans MS&quot;&gt;c&lt;/font&gt;" style="ellipse;whiteSpace=wrap;html=1;aspect=fixed;fillColor=#f5f5f5;fontColor=#333333;strokeColor=#666666;" vertex="1" parent="1">
          <mxGeometry x="410" y="890" width="40" height="40" as="geometry" />
        </mxCell>
        <mxCell id="k8xy3Kr_hPyLSZehIr84-65" value="&lt;font style=&quot;font-size: 15px&quot; face=&quot;Comic Sans MS&quot;&gt;a1&lt;/font&gt;" style="ellipse;whiteSpace=wrap;html=1;aspect=fixed;fillColor=#f5f5f5;fontColor=#333333;strokeColor=#666666;" vertex="1" parent="1">
          <mxGeometry x="210" y="970" width="40" height="40" as="geometry" />
        </mxCell>
        <mxCell id="k8xy3Kr_hPyLSZehIr84-66" value="&lt;font style=&quot;font-size: 15px&quot; face=&quot;Comic Sans MS&quot;&gt;a2&lt;/font&gt;" style="ellipse;whiteSpace=wrap;html=1;aspect=fixed;fillColor=#f5f5f5;fontColor=#333333;strokeColor=#666666;" vertex="1" parent="1">
          <mxGeometry x="290" y="970" width="40" height="40" as="geometry" />
        </mxCell>
        <mxCell id="k8xy3Kr_hPyLSZehIr84-67" value="&lt;font style=&quot;font-size: 15px&quot; face=&quot;Comic Sans MS&quot;&gt;c1&lt;/font&gt;" style="ellipse;whiteSpace=wrap;html=1;aspect=fixed;fillColor=#f5f5f5;fontColor=#333333;strokeColor=#666666;" vertex="1" parent="1">
          <mxGeometry x="370" y="970" width="40" height="40" as="geometry" />
        </mxCell>
        <mxCell id="k8xy3Kr_hPyLSZehIr84-68" value="&lt;font style=&quot;font-size: 15px&quot; face=&quot;Comic Sans MS&quot;&gt;c2&lt;/font&gt;" style="ellipse;whiteSpace=wrap;html=1;aspect=fixed;fillColor=#f5f5f5;fontColor=#333333;strokeColor=#666666;" vertex="1" parent="1">
          <mxGeometry x="450" y="970" width="40" height="40" as="geometry" />
        </mxCell>
        <mxCell id="k8xy3Kr_hPyLSZehIr84-69" value="1" style="text;html=1;strokeColor=none;fillColor=none;align=center;verticalAlign=middle;whiteSpace=wrap;rounded=0;fontFamily=Comic Sans MS;fontSize=15;opacity=20;" vertex="1" parent="1">
          <mxGeometry x="200" y="880" width="40" height="40" as="geometry" />
        </mxCell>
        <mxCell id="k8xy3Kr_hPyLSZehIr84-70" value="2" style="text;html=1;strokeColor=none;fillColor=none;align=center;verticalAlign=middle;whiteSpace=wrap;rounded=0;fontFamily=Comic Sans MS;fontSize=15;opacity=20;" vertex="1" parent="1">
          <mxGeometry x="280" y="800" width="40" height="40" as="geometry" />
        </mxCell>
        <mxCell id="k8xy3Kr_hPyLSZehIr84-71" value="3" style="text;html=1;strokeColor=none;fillColor=none;align=center;verticalAlign=middle;whiteSpace=wrap;rounded=0;fontFamily=Comic Sans MS;fontSize=15;opacity=20;" vertex="1" parent="1">
          <mxGeometry x="460" y="880" width="40" height="40" as="geometry" />
        </mxCell>
      </root>
    </mxGraphModel>
  </diagram>
</mxfile>
